<svg xmlns="http://www.w3.org/2000/svg" xmlns:xlink="http://www.w3.org/1999/xlink"><defs><symbol viewBox="0 0 32 32" id="iconEdit"><path class="cls-1" d="M29 16v12a1 1 0 01-1 1H4a1 1 0 01-1-1V4a1 1 0 011-1h12a1 1 0 010 2H5v22h22V16a1 1 0 012 0zm-18.54.13L22.29 4.29a3.83 3.83 0 015.42 5.42L15.87 21.54a1 1 0 01-.38.24l-6.16 2.16A1 1 0 019 24a1 1 0 01-.94-1.33l2.16-6.16a1 1 0 01.24-.38zm.17 5.24l4-1.4L26.29 8.29a1.82 1.82 0 00-2.58-2.58L12 17.38z" /></symbol><symbol viewBox="0 0 32 32" stroke-width="2" stroke-linecap="round" stroke-linejoin="round" id="iconPlus"><path class="cls-1" d="M16 7v18M7 16h18" /></symbol></defs></svg>